<?xml version="1.0" encoding="utf-8"?>
<!-- Generator: Adobe Illustrator 22.1.0, SVG Export Plug-In . SVG Version: 6.00 Build 0)  -->
<svg version="1.1" id="Layer_1" xmlns="http://www.w3.org/2000/svg" xmlns:xlink="http://www.w3.org/1999/xlink" x="0px" y="0px"
	 viewBox="0 0 3644 1215" style="enable-background:new 0 0 3644 1215;" xml:space="preserve">
<style type="text/css">
	.st0{fill:#FFFFFF;}
	.st1{fill:#FF0B0B;}
	.st2{fill:#7F7F7F;}
</style>
<g>
	<path class="st0" d="M560.1,993.8c0,40.2-10.4,76.4-31.1,108.5c-20.7,32.1-51.1,57.2-91,75.4c-39.9,18.2-87.3,27.2-142.1,27.2
		c-65.7,0-119.8-12.4-162.5-37.2c-30.3-17.9-54.9-41.7-73.8-71.5c-18.9-29.8-28.4-58.8-28.4-86.9c0-16.3,5.7-30.3,17-42
		c11.3-11.6,25.8-17.5,43.3-17.5c14.2,0,26.3,4.5,36.1,13.6c9.8,9.1,18.2,22.5,25.2,40.4c8.5,21.2,17.6,38.9,27.5,53.1
		c9.8,14.2,23.7,26,41.5,35.2c17.9,9.2,41.3,13.8,70.4,13.8c39.9,0,72.4-9.3,97.4-27.9c25-18.6,37.4-41.8,37.4-69.7
		c0-22.1-6.7-40-20.2-53.8c-13.5-13.8-30.9-24.3-52.2-31.5c-21.3-7.3-49.9-15-85.6-23.2c-47.8-11.2-87.8-24.3-120.1-39.3
		c-32.2-15-57.8-35.4-76.7-61.3c-18.9-25.9-28.4-58-28.4-96.5c0-36.6,10-69.1,30-97.6c20-28.4,48.9-50.3,86.7-65.6
		c37.8-15.3,82.3-22.9,133.5-22.9c40.9,0,76.2,5.1,106,15.2c29.8,10.1,54.5,23.6,74.2,40.4c19.7,16.8,34,34.4,43.1,52.9
		c9.1,18.5,13.6,36.5,13.6,54c0,16-5.7,30.5-17,43.3c-11.3,12.9-25.5,19.3-42.4,19.3c-15.4,0-27.2-3.9-35.2-11.6
		c-8-7.7-16.7-20.3-26.1-37.9c-12.1-25.1-26.6-44.7-43.6-58.8c-17-14.1-44.2-21.1-81.7-21.1c-34.8,0-62.9,7.6-84.2,22.9
		c-21.3,15.3-32,33.7-32,55.2c0,13.3,3.6,24.8,10.9,34.5c7.3,9.7,17.2,18,30,25c12.7,7,25.6,12.4,38.6,16.3
		c13,3.9,34.5,9.7,64.5,17.3c37.5,8.8,71.5,18.5,101.9,29c30.4,10.6,56.3,23.5,77.6,38.6c21.3,15.1,38,34.3,49.9,57.4
		C554.1,931.9,560.1,960.2,560.1,993.8z"/>
	<path class="st0" d="M1129.8,953c0,36.9-5.8,71-17.2,102.1c-11.5,31.2-28.1,58-49.9,80.3c-21.8,22.4-47.8,39.6-78.1,51.5
		c-30.3,12-64.3,17.9-102.1,17.9c-37.5,0-71.3-6.1-101.2-18.2c-30-12.1-55.9-29.4-77.8-52c-21.9-22.5-38.6-49.2-49.9-79.9
		c-11.3-30.7-17-64.7-17-101.9c0-37.5,5.7-71.9,17.2-103c11.5-31.2,28-57.8,49.5-79.9c21.5-22.1,47.5-39.1,78.1-51.1
		c30.6-11.9,64.3-17.9,101.2-17.9c37.5,0,71.6,6.1,102.1,18.2c30.6,12.1,56.7,29.4,78.5,51.7c21.8,22.4,38.4,49,49.7,79.9
		C1124.1,881.7,1129.8,915.8,1129.8,953z M1005.4,953c0-50.5-11.1-89.9-33.4-118c-22.2-28.1-52.1-42.2-89.7-42.2
		c-24.2,0-45.5,6.3-64,18.8c-18.5,12.6-32.7,31.1-42.7,55.6c-10,24.5-15,53.1-15,85.8c0,32.4,4.9,60.7,14.8,84.9
		c9.8,24.2,23.9,42.7,42.2,55.6c18.3,12.9,39.9,19.3,64.7,19.3c37.5,0,67.4-14.1,89.7-42.4C994.3,1042,1005.4,1002.9,1005.4,953z"/>
	<path class="st0" d="M1639.5,962.1v164.8c0,26-5.9,45.5-17.7,58.6c-11.8,13-27.4,19.5-46.8,19.5c-18.8,0-34-6.5-45.6-19.5
		c-11.7-13-17.5-32.5-17.5-58.6V929.4c0-31.2-1.1-55.4-3.2-72.6c-2.1-17.2-7.9-31.4-17.2-42.4c-9.4-11-24.2-16.6-44.5-16.6
		c-40.6,0-67.3,13.9-80.1,41.8c-12.9,27.8-19.3,67.8-19.3,119.8v167.5c0,25.7-5.8,45.2-17.5,58.3c-11.7,13.2-27,19.7-46.1,19.7
		c-18.8,0-34.1-6.6-46.1-19.7c-12-13.2-17.9-32.6-17.9-58.3V772.3c0-23.3,5.4-41,16.1-53.1c10.7-12.1,24.9-18.2,42.4-18.2
		c16.9,0,31.1,5.7,42.4,17c11.3,11.3,17,27,17,47v11.8c21.5-25.7,44.5-44.6,69-56.7c24.5-12.1,51.7-18.2,81.7-18.2
		c31.2,0,57.9,6.2,80.3,18.6c22.4,12.4,40.9,31.2,55.4,56.3c20.9-25.4,43.3-44.3,67.2-56.5c23.9-12.3,50.4-18.4,79.4-18.4
		c33.9,0,63.1,6.7,87.6,20c24.5,13.3,42.8,32.4,54.9,57.2c10.6,22.4,15.9,57.6,15.9,105.8v241.9c0,26-5.9,45.5-17.7,58.6
		c-11.8,13-27.4,19.5-46.8,19.5c-18.8,0-34.1-6.6-46.1-19.7c-12-13.2-17.9-32.6-17.9-58.3V918.5c0-26.6-1.1-48-3.4-64
		c-2.3-16-8.4-29.5-18.4-40.4c-10-10.9-25.1-16.3-45.4-16.3c-16.3,0-31.9,4.8-46.5,14.5c-14.7,9.7-26.1,22.7-34.3,39
		C1644,872.2,1639.5,909.1,1639.5,962.1z"/>
	<path class="st0" d="M2112.5,643.4c-17.2,0-32-5.3-44.3-15.9c-12.3-10.6-18.4-25.6-18.4-44.9c0-17.5,6.3-32,18.8-43.3
		c12.6-11.3,27.2-17,43.8-17c16,0,30.3,5.1,42.7,15.4c12.4,10.3,18.6,25.3,18.6,44.9c0,19.1-6.1,34-18.2,44.7
		C2143.5,638,2129.1,643.4,2112.5,643.4z M2173.8,771.4v358.1c0,24.8-5.9,43.6-17.7,56.3c-11.8,12.7-26.8,19.1-44.9,19.1
		c-18.2,0-32.9-6.5-44.3-19.5c-11.3-13-17-31.6-17-55.8V775c0-24.5,5.7-43,17-55.4c11.3-12.4,26.1-18.6,44.3-18.6
		c18.2,0,33.1,6.2,44.9,18.6C2167.9,732.1,2173.8,749.3,2173.8,771.4z"/>
</g>
<path class="st1" d="M3041.7,1197.2c0,0-467.5-986.4-1582.6-1153.7c4.3,4.3,1046.5-111.5,1904.2,1153.7
	C3354.8,1197.2,3041.7,1197.2,3041.7,1197.2z"/>
<path class="st2" d="M3482,1192.9c0,0-130.1-275.9-387.4-520.4c1.4,1.4,41.5-48.6,41.5-48.6s247.3,215.9,458.9,569
	C3596.4,1194.4,3482,1192.9,3482,1192.9z"/>
<path class="st2" d="M2938.8,479.2l-34.3,47.5c0,0-347.4-290.2-975-506.1C1926.6,20.6,2478.5,112.9,2938.8,479.2z"/>
<path class="st1" d="M3255.6,504l-314.2-26.9L2838.6,590c0,0,152.6,150.2,172.5,181.2C3010.8,770.9,3255.6,504,3255.6,504z"/>
<polygon class="st1" points="2705.8,719 2868.7,915.2 2654.8,1197.2 2325.7,1197.2 "/>
</svg>
