<svg 
 xmlns="http://www.w3.org/2000/svg"
 xmlns:xlink="http://www.w3.org/1999/xlink"
 width="51.082cm" height="29.774cm">
<path fill-rule="evenodd"  fill="rgb(2, 0, 0)"
 d="M965.930,646.389 L820.024,838.460 L589.162,836.613 L849.575,502.337 C849.575,502.337 506.051,92.341 0.000,38.783 C1.847,38.783 517.133,14.775 936.379,395.221 C938.226,397.068 993.633,315.807 993.633,315.807 L1220.802,319.501 L1074.897,515.265 C1074.897,515.265 1313.147,792.289 1318.688,840.306 C1320.535,840.306 1098.907,844.000 1098.907,844.000 L965.930,646.389 ZM1374.095,844.000 C1374.095,844.000 1217.108,566.976 1106.294,482.022 C1106.294,480.175 1133.998,443.239 1133.998,443.239 C1133.998,443.239 1372.248,679.632 1447.971,842.153 C1449.818,844.000 1374.095,844.000 1374.095,844.000 ZM984.399,317.654 L960.389,354.591 C960.389,354.591 670.425,116.350 282.576,0.000 C284.423,0.000 655.650,57.252 984.399,317.654 Z"/>
</svg>